# xmcd
#
# Track frame offsets:
#	150
#	9539
#	32396
#	52327
#	75707
#	95259
#	119671
#	142737
#	165895
#	190084
#
# Disc length: 2688 seconds
#
# Revision: 2
# Processed by: cddbd v1.5.2PL0 Copyright (c) Steve Scherf et al.
# Submitted via: EZCDAudioConverter 8.0.2.1
#
DISCID=730a7e0a
DTITLE=Hồng Nhung - Vol 09. Khu Vườn Yên Tĩnh
DYEAR=2004
DGENRE=World Pop
TTITLE0=Introduction
TTITLE1=Giọt sương
TTITLE2=Hòn đá trong vườn tôi
TTITLE3=Tiếng mưa để lại
TTITLE4=Nắng sớm
TTITLE5=Tiếng nước róc rách
TTITLE6=Hương cau
TTITLE7=Con chim sâu
TTITLE8=Vườn gió
TTITLE9=Vườn ảo
EXTD=
EXTT0=
EXTT1=
EXTT2=
EXTT3=
EXTT4=
EXTT5=
EXTT6=
EXTT7=
EXTT8=
EXTT9=
PLAYORDER=
